<?xml version="1.0" encoding="UTF-8"?>
<svg id="Layer_1" data-name="Layer 1" xmlns="http://www.w3.org/2000/svg" viewBox="0 0 512 512">
  <defs>
    <style>
      .cls-1 {
        fill: aqua;
      }

      .cls-2 {
        fill: pink;
      }
    </style>
  </defs>
  <g>
    <rect x=".5" y=".5" width="511" height="511" />
    <path d="m511,1v510H1V1h510m1-1H0v512h512V0h0Z" />
  </g>
  <path class="cls-1"
    d="m256,152c34.91,0,68.07,11.03,95.89,31.91,13.41,10.06,25.13,22.11,34.81,35.79,7.98,11.28,14.43,23.45,19.23,36.3-4.8,12.85-11.24,25.02-19.23,36.3-9.68,13.68-21.4,25.72-34.81,35.79-27.82,20.88-60.98,31.91-95.89,31.91s-68.07-11.03-95.89-31.91c-13.41-10.06-25.13-22.11-34.81-35.79-7.98-11.28-14.43-23.45-19.23-36.3,4.8-12.85,11.24-25.02,19.23-36.3,9.68-13.68,21.4-25.72,34.81-35.79,27.82-20.88,60.98-31.91,95.89-31.91m0-40c-89.96,0-166.04,59.4-191.18,141.12-.58,1.88-.58,3.89,0,5.77,25.14,81.72,101.22,141.12,191.18,141.12s166.04-59.4,191.18-141.12c.58-1.88.58-3.89,0-5.77-25.14-81.72-101.22-141.12-191.18-141.12h0Z" />
  <rect x="262" y="-2" width="42" height="450" transform="translate(-74.8 265.43) rotate(-45)" />
  <circle class="cls-1" cx="256" cy="256" r="40" />
  <rect class="cls-2" x="235" y="31" width="42" height="450" rx="10" ry="10"
    transform="translate(-106.04 256) rotate(-45)" />
</svg>